<svg xmlns="http://www.w3.org/2000/svg" viewBox="0 0 128 128" role="img" aria-label="Dodge Dash player avatar">
  <defs>
    <linearGradient id="shirt" x1="0" x2="1" y1="0" y2="1">
      <stop offset="0" stop-color="#40c9ff"/>
      <stop offset="1" stop-color="#1778ff"/>
    </linearGradient>
    <filter id="shadow" x="-20%" y="-20%" width="140%" height="150%">
      <feDropShadow dx="0" dy="5" stdDeviation="4" flood-color="#000" flood-opacity="0.45"/>
    </filter>
  </defs>
  <circle cx="64" cy="64" r="58" fill="#111827" stroke="#fbbf24" stroke-width="6" filter="url(#shadow)"/>
  <circle cx="64" cy="46" r="21" fill="#f2c49b"/>
  <path d="M42 41c5-20 35-23 45-3 1 3 2 6 2 10-8-11-22-12-45-5z" fill="#3b2416"/>
  <circle cx="56" cy="50" r="3" fill="#111827"/>
  <circle cx="73" cy="50" r="3" fill="#111827"/>
  <path d="M56 62c6 5 13 5 19 0" fill="none" stroke="#7c2d12" stroke-width="4" stroke-linecap="round"/>
  <path d="M28 112c5-25 18-39 36-39s31 14 36 39" fill="url(#shirt)"/>
  <path d="M49 83l15 18 15-18" fill="none" stroke="#e0f2fe" stroke-width="6" stroke-linecap="round" stroke-linejoin="round"/>
  <text x="64" y="120" text-anchor="middle" font-size="15" font-family="Arial, sans-serif" font-weight="700" fill="#fbbf24">DD</text>
</svg>
